<?xml version="1.0" encoding="utf-8"?>
<!-- Generator: Adobe Illustrator 15.0.0, SVG Export Plug-In . SVG Version: 6.00 Build 0)  -->
<!DOCTYPE svg PUBLIC "-//W3C//DTD SVG 1.1//EN" "http://www.w3.org/Graphics/SVG/1.1/DTD/svg11.dtd">
<svg version="1.1" id="Layer_1" xmlns="http://www.w3.org/2000/svg" xmlns:xlink="http://www.w3.org/1999/xlink" x="0px" y="0px"
	 width="1296px" height="1296px" viewBox="0 0 1296 1296" enable-background="new 0 0 1296 1296" xml:space="preserve">
<path fill="none" stroke="#010202" stroke-width="0.75" d="M567.961,703.581c0,0,13.334,29.333,53.334,27.333
	s43.332-47.333,16.666-58s-46.666,22.667-24.666,42.667l-11.001,0.166c0,0-25-12.5-25.5-43.5s24.5-55.5,48-62.5s-16,16,34.5,47
	s50.5,73,28.5,97.5"/>
<path fill="none" stroke="#010202" stroke-width="0.75" d="M562.627,573.581c-38,103.334,22,141.333,22,141.333l10.667,1.333
	c0,0-41.333-29.333-13.333-80c28-50.666,72.666-40.666,72.666-40.666s63.667,10.666,146.667,107.666s-65,138-65,138"/>
</svg>
