<?xml version="1.0" encoding="utf-8"?>
<!-- Generator: Adobe Illustrator 15.0.0, SVG Export Plug-In . SVG Version: 6.00 Build 0)  -->
<!DOCTYPE svg PUBLIC "-//W3C//DTD SVG 1.1//EN" "http://www.w3.org/Graphics/SVG/1.1/DTD/svg11.dtd">
<svg version="1.1" id="Layer_1" xmlns="http://www.w3.org/2000/svg" xmlns:xlink="http://www.w3.org/1999/xlink" x="0px" y="0px"
	 width="1296px" height="1296px" viewBox="0 0 1296 1296" enable-background="new 0 0 1296 1296" xml:space="preserve">
<path fill="none" stroke="#010202" stroke-width="1.0628" d="M668.746,473.917c0,0,160.593-55.084,176.654-47.235
	c16.062,7.849-25.508,47.235-75.574,69.907c-50.067,22.672,8.975,67.543,14.643,19.365c5.668-48.178,49.596,45.345,4.252,137.45
	c-45.346,92.105,9.919-18.421-60.933-121.862c-70.851-103.442-185.628,38.258-45.345,94.939c0,0,26.717,5.668-17.003,29.757
	c-49.598,27.327-15.587,31.603-15.587,31.603s-29.758,22.244-72.269-21.684c0,0-19.16-19.116-35.37-54.303"/>
<path fill="none" stroke="#010202" stroke-width="1.0628" d="M739.314,627.836c-9.919-31.174-39.335-49.889-39.335-49.889
	c-2.745-1.948-6.022-3.308-6.022-3.72s0.396-1.594,0.396-1.594c3.92-12.515-12.74-33.1-12.74-33.1
	c8.343,2.951,12.74,7.125,12.74,7.125s44.299,33.061,56.58,140.753l6.613,6.062c0,0,1.474-102.418-48.386-160.985
	c-49.86-58.571-103.234,13.699-64.975,53.846c0,0,25.505,27.139,52.644-10.332"/>
<path fill="none" stroke="#010202" stroke-width="0.7085" d="M722.733,494.482c-23.431-19.772-58.338-24.194-87.166-16.517
	c-21.428,5.707-43.409,17.179-52.821,38.373c-7.923,17.843-5.08,38.254,2.606,55.65c2.185,4.946,4.767,9.715,7.655,14.281
	c0,0,27.702,38.924,69.268,49.615c0,0-66.978,37.141-42.464,51.311c0,0-39.302-5.648-75.587-80.407"/>
<path fill="none" stroke="#010202" stroke-width="1.0628" d="M682.941,667.828c0,0-19.835,14.17-30.7,13.699
	c-10.864-0.473-2.704-9.744,15.351-18.895c0,0,9.939-5.214,14.931-9.415c0,0,4.553-5.106,8.804,0
	C695.578,658.324,682.941,667.828,682.941,667.828z"/>
<path fill="none" stroke="#010202" stroke-width="1.0628" d="M690.455,634.647c5.39,19.367,7.603,19.603,7.603,19.603
	s-0.594,15.587-22.911,25.152c0,0-18.743,9.482-24.208,8.438"/>
<path fill="none" stroke="#010202" stroke-width="1.0628" d="M649.854,687.84"/>
<path fill="none" stroke="#010202" stroke-width="1.0628" d="M644.186,586.333c0,0,23.758,27.178,59.655,24.344l5.668,11.336
	c0,0,9.217,17.239-11.451,32.237"/>
<path fill="none" stroke="#010202" stroke-width="1.0628" d="M703.841,610.677c0,0-1.416,16.531-13.698,21.021"/>
<path fill="none" stroke="#010202" stroke-width="1.0628" d="M758.396,694.635l11.69,1.771c0,0,74.748-106.985,25.86-190.233"/>
</svg>
