<?xml version="1.0" encoding="utf-8"?>
<!-- Generator: Adobe Illustrator 15.0.0, SVG Export Plug-In . SVG Version: 6.00 Build 0)  -->
<!DOCTYPE svg PUBLIC "-//W3C//DTD SVG 1.1//EN" "http://www.w3.org/Graphics/SVG/1.1/DTD/svg11.dtd">
<svg version="1.1" id="Layer_1" xmlns="http://www.w3.org/2000/svg" xmlns:xlink="http://www.w3.org/1999/xlink" x="0px" y="0px"
	 width="1296px" height="1296px" viewBox="0 0 1296 1296" enable-background="new 0 0 1296 1296" xml:space="preserve">
<path fill="#FFFFFF" stroke="#000000" stroke-width="2.6222" stroke-miterlimit="10" d="M376.792,577.246
	c15.747,188.418,154.694,192.44,216.511,164.25c37.076-16.9,120.823-109.395,120.823-109.395l53.09-56.877"/>
<path fill="none" stroke="#000000" stroke-width="0.9394" stroke-miterlimit="10" d="M608.039,644.242
	c0-45.916-37.227-83.146-83.143-83.146s-83.143,37.23-83.143,83.146c0,45.917,37.227,83.147,83.143,83.147
	S608.039,690.158,608.039,644.242z"/>
<g>
	<path d="M581.178,728.412c9.459-5.16,18.169-11.645,25.822-19.18c7.641-7.549,14.203-16.17,19.417-25.529
		c5.232-9.348,9.141-19.428,11.528-29.854c2.396-10.424,3.275-21.184,2.662-31.846c-0.618-10.661-2.74-21.223-6.276-31.283
		c-3.546-10.06-8.544-19.602-14.777-28.25c-12.444-17.32-29.898-30.985-49.709-38.828c-19.758-7.979-41.826-10.068-62.779-6.121
		c-10.477,1.971-20.669,5.452-30.166,10.308c-9.491,4.863-18.307,11.055-26.106,18.348c-15.616,14.577-26.989,33.702-32.236,54.487
		c-5.375,20.754-4.65,43.066,1.97,63.573c-7.188-20.333-8.229-42.807-3.217-63.883c5.052-21.086,16.373-40.627,32.097-55.641
		c15.657-15.102,35.825-25.45,57.214-29.536c21.381-4.108,43.942-2.07,64.196,6.033c20.248,8.103,38.03,22.14,50.672,39.872
		c12.688,17.691,20.207,39.08,21.125,60.818c0.503,10.854-0.514,21.776-3.062,32.327c-2.545,10.549-6.604,20.725-12.023,30.107
		C616.648,703.072,600.394,718.621,581.178,728.412z"/>
</g>
<path fill="none" stroke="#000000" stroke-width="0.9394" stroke-miterlimit="10" d="M410.468,653.918
	c0,0-33.105-77.184,34.242-134.225l25.044,4.841l2.725,4.412"/>
</svg>
