<?xml version="1.0" encoding="utf-8"?>
<!-- Generator: Adobe Illustrator 15.0.0, SVG Export Plug-In . SVG Version: 6.00 Build 0)  -->
<!DOCTYPE svg PUBLIC "-//W3C//DTD SVG 1.1//EN" "http://www.w3.org/Graphics/SVG/1.1/DTD/svg11.dtd">
<svg version="1.1" id="Layer_1" xmlns="http://www.w3.org/2000/svg" xmlns:xlink="http://www.w3.org/1999/xlink" x="0px" y="0px"
	 width="1296px" height="1296px" viewBox="0 0 1296 1296" enable-background="new 0 0 1296 1296" xml:space="preserve">
<path fill="none" stroke="#010202" d="M671.227,501.764c0,0-33.621,98.438-142.779,86.404
	c-98.566-10.868,19.705,7.517-95.117,67.818c-114.826,60.303,207.861-18.584,241.802-144.921L671.227,501.764z"/>
<path fill="none" stroke="#010202" d="M410.329,670.986c0,0,74.177-12.652,112.121-41.931c37.944-29.281-4.177-35.033-4.177-35.033
	s-23.679-5.196-32.161-3.933"/>
<path fill="none" stroke="#010202" d="M494.869,583.845c0,0-6.657-34.825,10.595-68.229c17.257-33.408,9.548,65.904,100.311,40.543
	c31.601-8.829,62.595-48.653,60.888-69.083c0,0-1.18-1.685,4.845-2.87c6.023-1.186,10.979,1.26,10.979,1.26
	s-3.181,10.125-9.108,21.42"/>
</svg>
