<?xml version="1.0" encoding="utf-8"?>
<!-- Generator: Adobe Illustrator 15.0.0, SVG Export Plug-In . SVG Version: 6.00 Build 0)  -->
<!DOCTYPE svg PUBLIC "-//W3C//DTD SVG 1.1//EN" "http://www.w3.org/Graphics/SVG/1.1/DTD/svg11.dtd">
<svg version="1.1" id="Layer_1" xmlns="http://www.w3.org/2000/svg" xmlns:xlink="http://www.w3.org/1999/xlink" x="0px" y="0px"
	 width="1296px" height="1296px" viewBox="0 0 1296 1296" enable-background="new 0 0 1296 1296" xml:space="preserve">
<path fill="none" stroke="#000000" stroke-width="2.0555" stroke-miterlimit="10" d="M616.561,566.354
	c0,0-58.305,47.819-132.098,92.197c-73.802,44.363-24.295,35.017-24.295,35.017l67.605-13.291c0,0,3.926,0,20.225-13.572
	c16.299-13.588,21.727-20.249,21.727-20.249s2.725-5.105-2.711-9.943c-5.436-4.823-12.473-12.584,58.768-69.2"/>
<path fill="none" stroke="#000000" stroke-width="2.0555" stroke-miterlimit="10" d="M660.437,568.16
	c0,0-45.142,78.94-74.712,78.359c0,0-4.156-1.069-9.363,6.174c-5.2,7.24-26.479,28.935-26.479,28.935s-4.523,3.629,1.358,18.003
	c5.876,14.39,16.378,74.21,16.378,74.21s0.447,4.384,4.375,5.892c3.919,1.508,9.354,4.226,29.729-56.899
	c20.368-61.123,72.113-150.808,72.113-150.808"/>
<path fill="none" stroke="#000000" stroke-width="2.0555" stroke-miterlimit="10" d="M585.725,646.52c0,0,11.914,14.984,36.82-16.15
	c24.9-31.135,43.013-62.192,43.013-62.192"/>
<path fill="none" stroke="#000000" stroke-width="2.0555" stroke-miterlimit="10" d="M622.451,566.354
	c0,0-85.928,66.387-60.803,74.996c0,0,6.223,2.058,6.732-3.378"/>
</svg>
