<?xml version="1.0" encoding="utf-8"?>
<!-- Generator: Adobe Illustrator 15.0.0, SVG Export Plug-In . SVG Version: 6.00 Build 0)  -->
<!DOCTYPE svg PUBLIC "-//W3C//DTD SVG 1.1//EN" "http://www.w3.org/Graphics/SVG/1.1/DTD/svg11.dtd">
<svg version="1.1" id="Layer_1" xmlns="http://www.w3.org/2000/svg" xmlns:xlink="http://www.w3.org/1999/xlink" x="0px" y="0px"
	 width="1296px" height="1296px" viewBox="0 0 1296 1296" enable-background="new 0 0 1296 1296" xml:space="preserve">
<g>
	<path fill="#FFFFFF" d="M491.398,448.906c0,0,122.446,79.35,138.123,146.601c15.676,67.258-27.23,75.799-55.453,133.443
		c-28.224,57.646,50.282,111.023,99.252,41.632c10.78-15.272,17.853-30.546,22.099-45.354c15.04-52.457-5.397-99.062-22.099-119.043
		c-21.408-25.618-66.55-69.584-66.55-69.584s-99.71-93.675-104.947-99.146"/>
	<path d="M491.398,448.906c16.422,10.81,32.266,22.49,47.627,34.767c15.332,12.31,30.151,25.297,43.951,39.337
		c6.893,7.024,13.5,14.34,19.678,22.014c6.164,7.679,11.908,15.729,16.8,24.308c4.868,8.564,8.927,17.727,11.034,27.423
		c2.167,9.621,3.498,19.514,2.995,29.438c-0.249,4.954-0.983,9.896-2.261,14.701c-1.276,4.805-3.095,9.463-5.344,13.887
		c-4.494,8.881-10.59,16.751-16.723,24.426c-6.166,7.668-12.424,15.229-18.113,23.204c-5.706,7.957-10.859,16.305-15.251,25.046
		c-2.247,4.336-4.058,8.837-5.224,13.542c-1.174,4.69-1.713,9.539-1.527,14.362c0.341,9.652,3.712,19.146,9.486,26.882
		c5.742,7.76,13.798,13.774,22.85,17.117c9.047,3.382,19.06,4.011,28.486,1.928c9.46-2.038,18.252-6.685,25.768-12.805
		c7.555-6.127,13.865-13.672,19.258-21.812c10.916-16.201,18.897-34.464,22.54-53.675c3.691-19.188,3.026-39.163-1.679-58.129
		c-2.345-9.485-5.676-18.73-9.959-27.511c-2.144-4.388-4.533-8.657-7.204-12.74c-1.337-2.039-2.744-4.032-4.237-5.955
		c-1.488-1.917-3.098-3.776-4.686-5.642c-6.4-7.436-13.063-14.657-19.797-21.808c-6.74-7.146-13.574-14.208-20.459-21.218
		c-6.889-7.008-13.828-13.966-20.822-20.868c-7.041-6.824-14.273-13.508-21.381-20.29l-42.779-40.598l-21.359-20.331
		c-7.098-6.801-14.254-13.541-21.243-20.453c7.042,6.857,14.251,13.542,21.4,20.286l21.517,20.164l43.094,40.264l10.77,10.068
		l5.383,5.038c1.791,1.669,3.605,3.358,5.349,5.089c7.03,6.875,14.005,13.805,20.929,20.786
		c6.923,6.982,13.793,14.018,20.574,21.142c6.775,7.13,13.48,14.33,19.941,21.766c1.604,1.868,3.223,3.72,4.759,5.678
		c1.53,1.952,2.968,3.972,4.335,6.035c2.73,4.132,5.17,8.445,7.361,12.878c4.379,8.87,7.741,18.228,10.135,27.818
		c4.79,19.182,5.496,39.412,1.785,58.858c-3.66,19.47-11.721,37.979-22.732,54.374c-5.439,8.238-11.869,15.967-19.599,22.252
		c-7.692,6.281-16.747,11.105-26.55,13.224c-9.771,2.146-20.174,1.479-29.554-2.046c-9.387-3.483-17.728-9.73-23.673-17.789
		c-5.979-8.032-9.465-17.901-9.802-27.911c-0.403-10.026,2.354-20.009,6.981-28.762c4.447-8.821,9.666-17.244,15.427-25.252
		c5.743-8.025,12.044-15.611,18.204-23.251c6.14-7.642,12.146-15.435,16.595-24.109c2.225-4.326,4.021-8.867,5.29-13.558
		c1.269-4.69,2.011-9.521,2.277-14.382c0.539-9.735-0.727-19.523-2.83-29.064c-2.031-9.559-5.99-18.605-10.781-27.126
		c-4.812-8.527-10.488-16.559-16.592-24.23c-6.111-7.673-12.684-14.977-19.501-22.039c-13.657-14.112-28.356-27.202-43.581-39.622
		C523.48,471.645,507.734,459.843,491.398,448.906z"/>
</g>
<path fill="none" stroke="#000000" stroke-width="0.5194" stroke-miterlimit="10" d="M493.347,446.276
	c0,0,169.034,106.873,145.545,214.694c-6.822,31.309-28.02,54.579-36.315,70.992c-20.722,41.005,5.486,59.563,26.769,55.776
	c29.993-5.336,63.879-46.155,65.527-102.173c1.882-63.966-38.245-94.813-60.148-116.834
	c-20.703-20.812-87.647-91.798-135.085-127.347"/>
</svg>
