<?xml version="1.0" encoding="utf-8"?>
<!-- Generator: Adobe Illustrator 15.0.0, SVG Export Plug-In . SVG Version: 6.00 Build 0)  -->
<!DOCTYPE svg PUBLIC "-//W3C//DTD SVG 1.1//EN" "http://www.w3.org/Graphics/SVG/1.1/DTD/svg11.dtd">
<svg version="1.1" id="Layer_1" xmlns="http://www.w3.org/2000/svg" xmlns:xlink="http://www.w3.org/1999/xlink" x="0px" y="0px"
	 width="1296px" height="1296px" viewBox="0 0 1296 1296" enable-background="new 0 0 1296 1296" xml:space="preserve">
<path fill="#FFFFFF" stroke="#000000" stroke-width="1.5515" stroke-miterlimit="10" d="M713.988,634.791"/>
<path fill="#FFFFFF" stroke="#000000" stroke-width="1.5515" stroke-miterlimit="10" d="M747.404,591.705"/>
<path fill="#FFFFFF" stroke="#000000" stroke-width="1.5515" stroke-miterlimit="10" d="M520.392,720.054
	c0,0,166.005-27.498,205.648-172.89c39.649-145.392,1.062,20.615,95.698,48.635"/>
<path fill="none" stroke="#000000" stroke-width="1.5515" stroke-miterlimit="10" d="M531.879,717.588
	c0,0,61.678-205.855,188.591-217.723c0,0,7.204-0.669,19.261,0.161"/>
<path fill="none" stroke="#000000" stroke-width="1.5515" stroke-miterlimit="10" d="M542.803,714.693
	c0,0,19.678-87.909,90.08-100.962c70.399-13.056,58.566,25.103-18.143,62.684c-76.713,37.591-46.897-21.158-33.565-33.885"/>
<path fill="none" stroke="#000000" stroke-width="0.7757" stroke-miterlimit="10" d="M534.38,715.9
	c0,0,59.812-203.788,197.023-188.172"/>
<path fill="none" stroke="#000000" stroke-width="0.7757" stroke-miterlimit="10" d="M706.649,594.853
	c0,0-72.016-20.032-124.966,40.822l-5.372,0.769c0,0,66.736-105.663,150.51-92.132"/>
</svg>
