<?xml version="1.0" encoding="utf-8"?>
<!-- Generator: Adobe Illustrator 15.0.0, SVG Export Plug-In . SVG Version: 6.00 Build 0)  -->
<!DOCTYPE svg PUBLIC "-//W3C//DTD SVG 1.1//EN" "http://www.w3.org/Graphics/SVG/1.1/DTD/svg11.dtd">
<svg version="1.1" id="Layer_1" xmlns="http://www.w3.org/2000/svg" xmlns:xlink="http://www.w3.org/1999/xlink" x="0px" y="0px"
	 width="1296px" height="1296px" viewBox="0 0 1296 1296" enable-background="new 0 0 1296 1296" xml:space="preserve">
<path fill="none" stroke="#000000" stroke-width="1.3942" stroke-miterlimit="10" d="M698.177,631.637
	c2.571-8.9,11.43-14.154,19.782-11.74c8.352,2.414,11.902,11.736,9.326,20.635c-2.571,8.9-10.295,14.007-18.647,11.592
	C700.285,649.709,695.601,640.536,698.177,631.637z"/>
<path fill="none" stroke="#000000" stroke-width="0.9295" stroke-miterlimit="10" d="M885.558,579.596
	c-17.279,2.505-33.604-0.192-45.705-13.061c-12.101-12.863-8.844-30.071-8.85-34.152c-0.002-4.079-3.844-3.674-23.327,24.117
	c-19.486,27.788-15.772,14.511,10.926,43.035c26.696,28.521,17.434,43.971,17.415,45.034c-0.016,1.063,2.544-1.948,12.155-5.854
	c9.406-3.826,12.039-2.444,13.858-3.27c0,0,8.407-13.132,13.735-20.14c5.329-7.013,15.338-16.995,33.126-26.341"/>
<path fill="none" stroke="#000000" stroke-miterlimit="10" d="M426.643,535.845c0,0,109.393,3.464,147.604,116.134
	c38.207,112.667,44.578-34.242,83.806,42.054c0,0,49.31,90.586,130.519,36.157c0,0,5.266-3.5,1.258-12.64
	c-4.005-9.142-29.732-10.015-37.562-31.661c-7.829-21.647,8.844-41.547-2.251-60.771c-11.094-19.224-31.372-31.69-56.662-23.869"/>
<path fill="none" stroke="#000000" stroke-width="0.9295" stroke-miterlimit="10" d="M499.637,543.689
	c0,0,75.829,10.409,159.533,89.541c83.703,79.132,108.876-27.197,41.442-24.943c0,0-18.593,0.401-37.966,16.375
	c0,0-14.791-16.381-25.309-20.533c-10.52-4.153,61.202-42.718,105.521-2.071c28.567,26.201,18.53,41.934,17.538,55.791
	c-0.576,8.054-5.32,24.658,9.96,36.433c15.279,11.772,33.634,2.328,42.418,21.526c0,0,4.053,2.681,10.745-6.468
	c6.694-9.146,30.193-58.446,30.193-58.446s7.095-11.051-23.352,7.274c0,0-10.396,28.457-25.579,30.192
	c-15.182,1.737-32.796,0.915-34.16-13.521c-1.361-14.437,27.101-68.566-36.401-89.552"/>
<path fill="none" stroke="#000000" stroke-width="0.9295" stroke-miterlimit="10" d="M824.354,661.164
	c0,0-5.863,16.479-14.557,20.479s-28.175,4.037-33.184-4.076c-2.849-4.618,0.986-16.63,3.606-22.525c0,0,8.694,9.569,16.993,8.889
	C805.515,663.252,824.354,661.164,824.354,661.164z"/>
<path fill="none" stroke="#000000" stroke-width="0.9295" stroke-miterlimit="10" d="M606.859,694.87
	c0,0,5.895-41.413,26.008-44.882c20.112-3.472,24.615,41.921,64.349,74.126c39.735,32.205,70.616,15.472,91.354,6.075"/>
<path fill="none" stroke="#000000" stroke-width="0.9295" stroke-miterlimit="10" d="M812.775,715.808c0,0-5.838,6.056-13.801,8.306
	c0,0-0.841-7.545-6.826-11.342c-5.984-3.797-23.986-9.97-30.59-17.097c-6.6-7.127-12.63-16.32-5.453-48.168
	c5.607-24.882-13.535-43.123-25.848-49.889c-8.702-4.778-40.009-14.864-58.597-3.062"/>
<path fill="none" stroke="#000000" stroke-width="0.9295" stroke-miterlimit="10" d="M857.405,641.196c0,0-1.975,2.676-2.51,3.456
	c-0.537,0.775-3.299-0.991-9.082,1.918c-5.778,2.91-8.744,4.492-8.744,4.492s-0.241-0.57,0.143-1.6
	c0.383-1.03,0.869-1.896,0.869-1.896s7.219-4.688,8.993-5.413c1.771-0.726,2.244-0.901,3.623-1.154
	C851.926,640.777,854.819,640.236,857.405,641.196z"/>
</svg>
