<?xml version="1.0" encoding="utf-8"?>
<!-- Generator: Adobe Illustrator 15.0.0, SVG Export Plug-In . SVG Version: 6.00 Build 0)  -->
<!DOCTYPE svg PUBLIC "-//W3C//DTD SVG 1.1//EN" "http://www.w3.org/Graphics/SVG/1.1/DTD/svg11.dtd">
<svg version="1.1" id="Layer_1" xmlns="http://www.w3.org/2000/svg" xmlns:xlink="http://www.w3.org/1999/xlink" x="0px" y="0px"
	 width="1296px" height="1296px" viewBox="0 0 1296 1296" enable-background="new 0 0 1296 1296" xml:space="preserve">
<path fill="#FFFFFF" stroke="#000000" stroke-width="3.1407" stroke-miterlimit="10" d="M638.646,674.612
	c-41.585-51.765-118.451-149.979-118.451-149.979c0.169-15.656,41.409,4.963,55.986,8.199c14.592,3.261,16.995,2.728,23.226,2.247
	c0.649-0.052,3.164-0.52,3.449,0.455c0.923,3.235,4.288,9.745,9.551,18.853c4.443,7.705,15.487,21.803,18.729,24.18
	c1.02,0.741-0.183,2.209-1.008,2.678c-4.281,2.39-27.63,18.229,0.156,54.311c3.605,4.664,20.123,25.583,23.618,30.144"/>
<path fill="#FFFFFF" stroke="#000000" stroke-width="3.1407" stroke-miterlimit="10" d="M799.973,745.216
	c0.669-3.456-153.35-279.596-153.35-279.596c-17.43-8.264-19.685,31.976-24.966,44.046c-5.275,12.058-7.322,13.474-11.636,17.632
	c-4.32,4.145,16.144,32.404,16.144,32.404s11.045,15.838,16.273,14.084c5.236-1.754,33.62-15.487,56.644,23.505
	c23.029,39.005,73.599,130.71,73.599,130.71"/>
</svg>
