<?xml version="1.0" encoding="utf-8"?>
<!-- Generator: Adobe Illustrator 15.0.0, SVG Export Plug-In . SVG Version: 6.00 Build 0)  -->
<!DOCTYPE svg PUBLIC "-//W3C//DTD SVG 1.1//EN" "http://www.w3.org/Graphics/SVG/1.1/DTD/svg11.dtd">
<svg version="1.1" id="Layer_1" xmlns="http://www.w3.org/2000/svg" xmlns:xlink="http://www.w3.org/1999/xlink" x="0px" y="0px"
	 width="1296px" height="1296px" viewBox="0 0 1296 1296" enable-background="new 0 0 1296 1296" xml:space="preserve">
<g id="XMLID_3_">
	<g>
		<path fill="#FFFFFF" d="M606.834,550.224c-14.996,51.063,57.919,172.705,64.151,182.987l2.96,30.108
			c-88.729-129.08-118.408-265.055-118.408-265.055s2.415-4.401,8.764-14.139c6.349-9.738,7.595-6.076,7.595-6.076
			s42.884,21.89,54.296,30.809C623.544,508.392,617.624,513.377,606.834,550.224z"/>
		<path fill="#FFFFFF" d="M670.985,733.211c-6.232-10.282-79.147-131.923-64.151-182.987c10.79-36.847,16.71-41.833,19.358-41.365
			c0.701,0.545,1.285,1.052,1.714,1.48c7.751,7.634,27.031,84.015,27.031,84.015s-28.161,24.46-14.373,70.812
			c6.894,23.175,14.723,36.34,19.708,44.441c6.427,10.438,10.127,17.762,10.127,17.762L670.985,733.211z"/>
	</g>
	<g>
		<path fill="none" stroke="#000000" stroke-width="2.0555" stroke-miterlimit="10" d="M670.985,733.211l-0.585-5.842
			c0,0-3.7-7.323-10.127-17.762c-4.985-8.102-12.814-21.267-19.708-44.441c-13.789-46.351,14.373-70.812,14.373-70.812
			s-19.28-76.381-27.031-84.015c-0.429-0.429-1.013-0.935-1.714-1.48c-11.413-8.919-54.296-30.809-54.296-30.809
			s-1.247-3.662-7.595,6.076c-6.349,9.737-8.764,14.139-8.764,14.139s29.68,135.975,118.408,265.055L670.985,733.211z"/>
		<path fill="none" stroke="#000000" stroke-width="2.0555" stroke-miterlimit="10" d="M671.413,733.912
			c0,0-0.155-0.233-0.428-0.701c-6.232-10.282-79.147-131.923-64.151-182.987c10.79-36.847,16.71-41.833,19.358-41.365
			c1.168,0.195,1.714,1.48,1.714,1.48"/>
	</g>
</g>
</svg>
