<?xml version="1.0" encoding="utf-8"?>
<!-- Generator: Adobe Illustrator 15.0.0, SVG Export Plug-In . SVG Version: 6.00 Build 0)  -->
<!DOCTYPE svg PUBLIC "-//W3C//DTD SVG 1.1//EN" "http://www.w3.org/Graphics/SVG/1.1/DTD/svg11.dtd">
<svg version="1.1" id="Layer_1" xmlns="http://www.w3.org/2000/svg" xmlns:xlink="http://www.w3.org/1999/xlink" x="0px" y="0px"
	 width="1296px" height="1296px" viewBox="0 0 1296 1296" enable-background="new 0 0 1296 1296" xml:space="preserve">
<path fill="none" stroke="#010202" stroke-width="0.75" d="M490.649,673.396c0,0-51.863-88.45,19-161
	c84-86,204.597,11.101,204.597,11.101s55.403,75.899-62.597,171.899"/>
<path fill="none" stroke="#010202" stroke-width="0.75" d="M530.671,664.314c0,0,85.191,55.703,144.833-21.967
	c0.651-0.846,3.896-9.285-5.87-0.914c-5.1,4.37-8.412,3.768-4.85-1.779c3.262-5.078,13.005-14.604,17.406-21.939
	c9.208-15.348-40.112,57.413-109.176,23.51"/>
<path fill="none" stroke="#010202" stroke-width="0.75" d="M589.13,636.41c0,0,34.322-9.208,21.347-30.137
	c-12.976-20.928-25.114-23.439-25.114-23.439s-15.486-4.604-25.113,5.441"/>
<path fill="none" stroke="#010202" stroke-width="0.75" d="M605.412,551.174"/>
<path fill="none" stroke="#010202" stroke-width="0.75" d="M588.921,637.457c0,0-18.207-11.51-9.836-29.09"/>
<circle fill="none" stroke="#010202" stroke-width="0.75" cx="592.897" cy="599.577" r="110.5"/>
<path fill="none" stroke="#010202" stroke-width="0.75" d="M568.861,698.001c7.705,1.875,15.755,2.867,24.036,2.867
	c51.119,0,93.393-37.866,100.303-87.079c0,0,4.896-29.28-18.823-0.818c-23.719,28.463-60.971,35.16-81.899,26.37
	c-20.928-8.79,64.599,2.651,29.998-57.063c-34.602-59.716-122.221,50.227-20.649,69.201s-157.519,11.72-92.223-68.225
	c65.296-79.945,11.302-41.438,11.302-41.438s37.252-43.95,99.198-8.372s-11.72-4.604-10.046,11.302c0,0,39.764,5.44,66.133,58.598
	c0,0,7.674-11.58,14.65-11.58c0,0,1.805-0.166,2.851,2.791"/>
<path fill="none" stroke="#010202" stroke-width="0.75" d="M492.724,584.471c7.294-48.776,49.365-86.186,100.174-86.186
	c10.67,0,20.954,1.649,30.612,4.708c0,0,3.987,1.431,3.43,3.942"/>
<path fill="none" stroke="#010202" stroke-width="0.75" d="M568.042,504.26c47.818-12.071,98.554,12.33,118.139,59.211
	c4.111,9.848,6.553,19.973,7.454,30.062"/>
</svg>
