<?xml version="1.0" encoding="utf-8"?>
<!-- Generator: Adobe Illustrator 15.0.0, SVG Export Plug-In . SVG Version: 6.00 Build 0)  -->
<!DOCTYPE svg PUBLIC "-//W3C//DTD SVG 1.1//EN" "http://www.w3.org/Graphics/SVG/1.1/DTD/svg11.dtd">
<svg version="1.1" id="Layer_1" xmlns="http://www.w3.org/2000/svg" xmlns:xlink="http://www.w3.org/1999/xlink" x="0px" y="0px"
	 width="1296px" height="1296px" viewBox="0 0 1296 1296" enable-background="new 0 0 1296 1296" xml:space="preserve">
<path fill="none" stroke="#010202" d="M720.266,449.235c0,0-23.73,96.055-203.41,141.257
	c-179.68,45.204-66.674-4.52-110.746,140.128c0,0,203.41-58.763,322.067-245.224c0,0-6.78-3.391-4.521-21.471
	C725.916,445.845,720.266,449.235,720.266,449.235z"/>
<path fill="none" stroke="#010202" d="M737.209,438.439c-0.1-0.328,19.904,52.446-60.14,131.756
	c-79.833,79.101-38.611,23.055-16.935,112.18c0,0,88.032-93.512,92.374-227.502c0,0-4.587,0.324-8.991-9.813
	C739.111,434.923,737.209,438.439,737.209,438.439z"/>
<path fill="none" stroke="#010202" d="M743.217,434.996c0,0,29.287,28.455,7.986,101.892
	c-21.299,73.437-15.492,22.817,26.877,68.636c0,0,21.408-84.717-20.331-165.817c0,0-2.62,1.71-8.592-2.86
	C743.186,432.276,743.217,434.996,743.217,434.996z"/>
</svg>
