<?xml version="1.0" encoding="utf-8"?>
<!-- Generator: Adobe Illustrator 15.0.0, SVG Export Plug-In . SVG Version: 6.00 Build 0)  -->
<!DOCTYPE svg PUBLIC "-//W3C//DTD SVG 1.1//EN" "http://www.w3.org/Graphics/SVG/1.1/DTD/svg11.dtd">
<svg version="1.1" id="Layer_1" xmlns="http://www.w3.org/2000/svg" xmlns:xlink="http://www.w3.org/1999/xlink" x="0px" y="0px"
	 width="1296px" height="1296px" viewBox="0 0 1296 1296" enable-background="new 0 0 1296 1296" xml:space="preserve">
<g>
	<path d="M485.814,754.652c-2.938-6.43-5.192-13.151-7.195-19.926c-1.98-6.786-3.62-13.67-4.967-20.611
		c-2.685-13.883-4.223-27.988-4.652-42.127c-0.888-28.285,2.447-56.645,9.238-84.102c1.696-6.866,3.607-13.68,5.717-20.431
		c2.137-6.746,4.403-13.435,6.649-20.138c2.266-6.695,4.556-13.383,7.007-20.02c1.234-3.314,2.493-6.621,3.934-9.867
		c0.738-1.617,1.471-3.236,2.514-4.748c0.275-0.372,0.56-0.745,0.99-1.062c0.215-0.149,0.505-0.309,0.881-0.278
		c0.381,0.035,0.662,0.283,0.82,0.497c0.605,0.897,0.711,1.788,0.896,2.676c0.555,3.55,0.635,7.083,0.803,10.616l0.416,10.591
		c0.311,7.054,0.732,14.102,1.539,21.108c0.809,7.002,1.965,13.978,3.84,20.764c1.892,6.758,4.489,13.418,8.615,19.1
		c0.092,0.127,0.092,0.293,0.012,0.417l-0.008,0.01c-2.91,4.483-5.156,9.444-7.104,14.456c-1.93,5.034-3.484,10.211-4.72,15.461
		c-1.235,5.252-2.144,10.58-2.759,15.941c-0.304,2.676-0.559,5.379-0.692,8.053c-0.028,1.331,0.034,2.676,0.322,3.956
		c0.146,0.635,0.355,1.263,0.7,1.771c0.339,0.516,0.854,0.827,1.436,0.782c0.164-0.013,0.308,0.11,0.32,0.274
		c0.01,0.117-0.053,0.226-0.148,0.281c-1.526,0.897-3.064,1.762-4.658,2.547c-0.791,0.4-1.639,0.73-2.455,1.04l-2.461,0.959
		l0.02-0.009c-1.392,0.637-2.803,1.06-4.169,1.626c-1.368,0.55-2.701,1.181-3.96,1.936c-2.524,1.499-4.73,3.522-6.421,5.923
		c-3.413,4.832-4.803,10.801-5.288,16.658c-0.469,5.903-0.064,11.854,0.724,17.727c0.798,5.879,2.01,11.697,3.445,17.457
		c2.872,11.509,6.819,22.801,12.396,33.295c2.792,5.237,5.994,10.268,9.713,14.9c1.859,2.314,3.849,4.527,5.99,6.586
		c2.15,2.042,4.419,3.993,6.971,5.521c-2.562-1.514-4.844-3.452-7.008-5.482c-2.156-2.048-4.16-4.252-6.036-6.558
		c-3.752-4.616-6.99-9.636-9.819-14.866c-5.65-10.48-9.676-21.773-12.621-33.292c-1.451-5.769-2.678-11.6-3.492-17.499
		c-0.803-5.894-1.223-11.872-0.762-17.829c0.479-5.909,1.861-11.97,5.348-16.93c1.727-2.464,3.991-4.55,6.573-6.09
		c1.288-0.776,2.648-1.423,4.035-1.983c1.378-0.572,2.821-1.014,4.13-1.619l0.008-0.003l0.014-0.006l2.461-0.964
		c0.831-0.318,1.626-0.629,2.408-1.025c1.566-0.775,3.101-1.643,4.609-2.533l0.173,0.556c-0.794,0.08-1.585-0.417-1.97-1.038
		c-0.417-0.615-0.635-1.299-0.795-1.975c-0.309-1.361-0.373-2.74-0.347-4.109c0.132-2.727,0.38-5.412,0.679-8.109
		c0.607-5.385,1.508-10.74,2.739-16.021s2.784-10.488,4.715-15.56c1.958-5.061,4.182-10.023,7.157-14.626l0.004,0.427
		c-4.216-5.783-6.85-12.516-8.771-19.324c-1.906-6.838-3.081-13.849-3.908-20.878c-0.816-7.034-1.277-14.102-1.57-21.167
		l-0.395-10.594c-0.159-3.52-0.238-7.072-0.771-10.512c-0.151-0.828-0.331-1.748-0.733-2.322c-0.225-0.256-0.283-0.251-0.611-0.059
		c-0.287,0.205-0.559,0.537-0.804,0.874c-0.972,1.397-1.717,3.013-2.444,4.604c-1.434,3.211-2.697,6.509-3.935,9.812
		c-2.46,6.617-4.763,13.297-7.041,19.984c-2.258,6.691-4.542,13.386-6.686,20.109c-2.12,6.734-4.041,13.53-5.749,20.381
		c-6.834,27.391-10.223,55.694-9.395,83.936c0.426,14.113,1.838,28.209,4.446,42.094c1.304,6.941,2.9,13.83,4.84,20.623
		C480.702,741.474,482.915,748.205,485.814,754.652z"/>
</g>
<path fill="none" stroke="#000000" stroke-width="0.857" stroke-linejoin="round" stroke-miterlimit="10" d="M522.563,596.912
	c0,0,4.483-0.912-3.563,35.93c-8.051,36.842-11.861,23.493-11.732,18.166"/>
</svg>
